<svg width="1160" height="100" viewBox="0 0 1160 100" fill="none" xmlns="http://www.w3.org/2000/svg">
<rect width="1160" height="100" fill="#F0F0F0"/>
<rect width="125" height="100" fill="#FFE17F"/>
<g clip-path="url(#clip0_11376_580)">
<path d="M85.7 50.4L79.2 42.2C78.9 41.8 78.5 41.6 78 41.6H69.7V36.5C69.7 35.7 69 35 68.2 35H40.5C39.7 35 39 35.7 39 36.5C39 37.3 39.7 38 40.5 38H66.7V59.7H54.8C54.2 57.8 52.4 56.4 50.3 56.4C47.7 56.4 45.5 58.6 45.5 61.2C45.5 63.8 47.7 66 50.3 66C52.4 66 54.2 64.6 54.8 62.7H68.2C69 62.7 69.7 62 69.7 61.2V44.6H77.3L83 51.9V59.8H80.8C80.2 57.9 78.4 56.5 76.3 56.5C73.7 56.5 71.5 58.7 71.5 61.3C71.5 63.9 73.6 66.1 76.3 66.1C78.4 66.1 80.2 64.7 80.8 62.8H84.5C85.3 62.8 86 62.1 86 61.3V51.4C86 51 85.9 50.7 85.7 50.4ZM50.3 63C49.3 63 48.5 62.2 48.5 61.2C48.5 60.2 49.3 59.4 50.3 59.4C51.3 59.4 52.1 60.2 52.1 61.2C52.1 62.2 51.2 63 50.3 63ZM76.4 63C75.4 63 74.6 62.2 74.6 61.2C74.6 60.2 75.4 59.4 76.4 59.4C77.4 59.4 78.2 60.2 78.2 61.2C78.2 62.2 77.3 63 76.4 63Z" fill="black"/>
<path d="M58.4 44.6C59.2 44.6 59.9 43.9 59.9 43.1C59.9 42.3 59.2 41.6 58.4 41.6H43.8C43 41.6 42.3 42.3 42.3 43.1C42.3 43.9 43 44.6 43.8 44.6H58.4Z" fill="black"/>
<path d="M56.7 49.7C56.7 48.9 56 48.2 55.2 48.2H40.5C39.7 48.2 39 48.9 39 49.7C39 50.5 39.7 51.2 40.5 51.2H55.2C56 51.2 56.7 50.5 56.7 49.7Z" fill="black"/>
</g>
<path d="M321.732 61.72V56.12H322.532C323.225 56.12 323.752 55.56 324.112 54.44C324.472 53.3067 324.692 51.46 324.772 48.9L324.892 44.8H334.732V56.12H336.672V61.72H333.792V59H324.592V61.72H321.732ZM326.372 56.12H331.452V47.68H327.892L327.832 49.36C327.779 51.1867 327.652 52.6467 327.452 53.74C327.252 54.8333 326.892 55.6267 326.372 56.12ZM348.865 59.12C347.812 59.12 346.852 58.92 345.985 58.52C345.132 58.1067 344.392 57.56 343.765 56.88C343.138 56.1867 342.658 55.4133 342.325 54.56C341.992 53.6933 341.825 52.8 341.825 51.88C341.825 50.9467 341.998 50.0533 342.345 49.2C342.705 48.3333 343.198 47.5667 343.825 46.9C344.465 46.22 345.218 45.6867 346.085 45.3C346.952 44.9133 347.898 44.72 348.925 44.72C349.978 44.72 350.932 44.9267 351.785 45.34C352.652 45.74 353.392 46.2867 354.005 46.98C354.632 47.6733 355.112 48.4533 355.445 49.32C355.778 50.1733 355.945 51.0467 355.945 51.94C355.945 52.8733 355.765 53.7733 355.405 54.64C355.058 55.4933 354.565 56.26 353.925 56.94C353.298 57.6067 352.552 58.14 351.685 58.54C350.832 58.9267 349.892 59.12 348.865 59.12ZM345.165 51.92C345.165 52.6533 345.305 53.3467 345.585 54C345.865 54.64 346.285 55.1667 346.845 55.58C347.405 55.9933 348.085 56.2 348.885 56.2C349.712 56.2 350.398 55.9867 350.945 55.56C351.505 55.1333 351.918 54.5933 352.185 53.94C352.465 53.2733 352.605 52.5867 352.605 51.88C352.605 51.1467 352.458 50.46 352.165 49.82C351.885 49.1667 351.465 48.64 350.905 48.24C350.358 47.84 349.685 47.64 348.885 47.64C348.058 47.64 347.365 47.8533 346.805 48.28C346.258 48.6933 345.845 49.2267 345.565 49.88C345.298 50.5333 345.165 51.2133 345.165 51.92ZM361.02 51.78C361.02 50.9267 361.18 50.08 361.5 49.24C361.82 48.4 362.287 47.64 362.9 46.96C363.514 46.28 364.26 45.74 365.14 45.34C366.02 44.9267 367.02 44.72 368.14 44.72C369.46 44.72 370.614 45.0067 371.6 45.58C372.587 46.1533 373.32 46.9 373.8 47.82L371.28 49.58C371.067 49.0867 370.78 48.7 370.42 48.42C370.06 48.1267 369.674 47.9267 369.26 47.82C368.847 47.7 368.447 47.64 368.06 47.64C367.22 47.64 366.527 47.8533 365.98 48.28C365.434 48.7067 365.027 49.2467 364.76 49.9C364.494 50.5533 364.36 51.22 364.36 51.9C364.36 52.6467 364.514 53.3533 364.82 54.02C365.127 54.6733 365.56 55.2 366.12 55.6C366.68 56 367.34 56.2 368.1 56.2C368.5 56.2 368.907 56.14 369.32 56.02C369.734 55.8867 370.114 55.6733 370.46 55.38C370.82 55.0867 371.094 54.7067 371.28 54.24L373.96 55.82C373.68 56.5267 373.22 57.1267 372.58 57.62C371.94 58.1 371.214 58.4733 370.4 58.74C369.6 58.9933 368.807 59.12 368.02 59.12C366.994 59.12 366.054 58.9133 365.2 58.5C364.347 58.0733 363.607 57.5133 362.98 56.82C362.354 56.1133 361.867 55.3267 361.52 54.46C361.187 53.58 361.02 52.6867 361.02 51.78ZM390.43 47.68H386.11V59H382.83V47.68H378.49V44.8H390.43V47.68ZM398.323 44.8H401.863L406.743 59H403.383L402.283 55.82H397.863L396.783 59H393.423L398.323 44.8ZM401.743 53.56L400.083 48.1L398.383 53.56H401.743ZM423.881 55.36C423.881 56.1733 423.661 56.8533 423.221 57.4C422.781 57.9333 422.195 58.3333 421.461 58.6C420.741 58.8667 419.941 59 419.061 59H412.141V44.8H420.041C420.708 44.8 421.281 44.98 421.761 45.34C422.241 45.6867 422.615 46.14 422.881 46.7C423.148 47.26 423.281 47.84 423.281 48.44C423.281 49.1067 423.108 49.7467 422.761 50.36C422.415 50.9733 421.908 51.4267 421.241 51.72C422.041 51.96 422.681 52.3867 423.161 53C423.641 53.6133 423.881 54.4 423.881 55.36ZM415.421 47.6V50.54H418.641C419.001 50.54 419.321 50.42 419.601 50.18C419.881 49.94 420.021 49.5667 420.021 49.06C420.021 48.5933 419.895 48.2333 419.641 47.98C419.401 47.7267 419.108 47.6 418.761 47.6H415.421ZM420.541 54.7C420.541 54.26 420.415 53.8867 420.161 53.58C419.908 53.2733 419.588 53.12 419.201 53.12H415.421V56.22H419.061C419.475 56.22 419.821 56.08 420.101 55.8C420.395 55.5067 420.541 55.14 420.541 54.7ZM429.893 59V44.8H433.173V54.34L439.293 44.8H442.353V59H439.073V49.52L433.033 59H429.893ZM460.365 59V50.54L457.305 56.7H455.505L452.445 50.54V59H449.165V44.8H452.725L456.405 52.22L460.105 44.8H463.645V59H460.365ZM479.04 59V44.8H485.1C485.78 44.8 486.4 44.94 486.96 45.22C487.533 45.4867 488.026 45.8533 488.44 46.32C488.853 46.7733 489.173 47.2867 489.4 47.86C489.626 48.4333 489.74 49.0133 489.74 49.6C489.74 50.4267 489.546 51.2067 489.16 51.94C488.786 52.6733 488.26 53.2733 487.58 53.74C486.9 54.1933 486.106 54.42 485.2 54.42H482.32V59H479.04ZM482.32 51.56H485C485.386 51.56 485.72 51.3933 486 51.06C486.28 50.7267 486.42 50.24 486.42 49.6C486.42 48.9467 486.253 48.4667 485.92 48.16C485.6 47.84 485.253 47.68 484.88 47.68H482.32V51.56ZM505.481 56.12V59H495.501V44.8H505.301V47.68H498.781V50.44H504.381V53.1H498.781V56.12H505.481ZM510.673 61.72V56.12H511.473C512.167 56.12 512.693 55.56 513.053 54.44C513.413 53.3067 513.633 51.46 513.713 48.9L513.833 44.8H523.673V56.12H525.613V61.72H522.733V59H513.533V61.72H510.673ZM515.313 56.12H520.393V47.68H516.833L516.773 49.36C516.72 51.1867 516.593 52.6467 516.393 53.74C516.193 54.8333 515.833 55.6267 515.313 56.12ZM531.647 59V44.8H534.907V50.3H536.027L539.987 44.8H543.627L538.547 51.66L544.067 59H540.087L535.927 53.28H534.907V59H531.647ZM549.846 59V44.8H553.126V54.34L559.246 44.8H562.306V59H559.026V49.52L552.986 59H549.846ZM569.198 59V44.8H572.478V54.34L578.598 44.8H581.658V59H578.378V49.52L572.338 59H569.198ZM575.438 44.04C574.638 44.04 573.938 43.9067 573.338 43.64C572.738 43.36 572.271 42.9867 571.938 42.52C571.604 42.04 571.438 41.5 571.438 40.9H573.618C573.618 41.3133 573.764 41.6733 574.058 41.98C574.364 42.2867 574.831 42.44 575.458 42.44C576.044 42.44 576.491 42.2933 576.798 42C577.118 41.7067 577.278 41.34 577.278 40.9H579.458C579.458 41.5 579.291 42.04 578.958 42.52C578.624 42.9867 578.151 43.36 577.538 43.64C576.938 43.9067 576.238 44.04 575.438 44.04ZM607.371 47.68H603.051V59H599.771V47.68H595.431V44.8H607.371V47.68ZM618.92 59.12C617.867 59.12 616.907 58.92 616.04 58.52C615.187 58.1067 614.447 57.56 613.82 56.88C613.193 56.1867 612.713 55.4133 612.38 54.56C612.047 53.6933 611.88 52.8 611.88 51.88C611.88 50.9467 612.053 50.0533 612.4 49.2C612.76 48.3333 613.253 47.5667 613.88 46.9C614.52 46.22 615.273 45.6867 616.14 45.3C617.007 44.9133 617.953 44.72 618.98 44.72C620.033 44.72 620.987 44.9267 621.84 45.34C622.707 45.74 623.447 46.2867 624.06 46.98C624.687 47.6733 625.167 48.4533 625.5 49.32C625.833 50.1733 626 51.0467 626 51.94C626 52.8733 625.82 53.7733 625.46 54.64C625.113 55.4933 624.62 56.26 623.98 56.94C623.353 57.6067 622.607 58.14 621.74 58.54C620.887 58.9267 619.947 59.12 618.92 59.12ZM615.22 51.92C615.22 52.6533 615.36 53.3467 615.64 54C615.92 54.64 616.34 55.1667 616.9 55.58C617.46 55.9933 618.14 56.2 618.94 56.2C619.767 56.2 620.453 55.9867 621 55.56C621.56 55.1333 621.973 54.5933 622.24 53.94C622.52 53.2733 622.66 52.5867 622.66 51.88C622.66 51.1467 622.513 50.46 622.22 49.82C621.94 49.1667 621.52 48.64 620.96 48.24C620.413 47.84 619.74 47.64 618.94 47.64C618.113 47.64 617.42 47.8533 616.86 48.28C616.313 48.6933 615.9 49.2267 615.62 49.88C615.353 50.5333 615.22 51.2133 615.22 51.92ZM643.635 55.36C643.635 56.1733 643.415 56.8533 642.975 57.4C642.535 57.9333 641.948 58.3333 641.215 58.6C640.495 58.8667 639.695 59 638.815 59H631.895V44.8H639.795C640.462 44.8 641.035 44.98 641.515 45.34C641.995 45.6867 642.368 46.14 642.635 46.7C642.902 47.26 643.035 47.84 643.035 48.44C643.035 49.1067 642.862 49.7467 642.515 50.36C642.168 50.9733 641.662 51.4267 640.995 51.72C641.795 51.96 642.435 52.3867 642.915 53C643.395 53.6133 643.635 54.4 643.635 55.36ZM635.175 47.6V50.54H638.395C638.755 50.54 639.075 50.42 639.355 50.18C639.635 49.94 639.775 49.5667 639.775 49.06C639.775 48.5933 639.648 48.2333 639.395 47.98C639.155 47.7267 638.862 47.6 638.515 47.6H635.175ZM640.295 54.7C640.295 54.26 640.168 53.8867 639.915 53.58C639.662 53.2733 639.342 53.12 638.955 53.12H635.175V56.22H638.815C639.228 56.22 639.575 56.08 639.855 55.8C640.148 55.5067 640.295 55.14 640.295 54.7ZM652.835 44.8H656.375L661.255 59H657.895L656.795 55.82H652.375L651.295 59H647.935L652.835 44.8ZM656.255 53.56L654.595 48.1L652.895 53.56H656.255ZM666.653 59V44.8H672.713C673.393 44.8 674.013 44.94 674.573 45.22C675.146 45.4867 675.64 45.8533 676.053 46.32C676.466 46.7733 676.786 47.2867 677.013 47.86C677.24 48.4333 677.353 49.0133 677.353 49.6C677.353 50.4267 677.16 51.2067 676.773 51.94C676.4 52.6733 675.873 53.2733 675.193 53.74C674.513 54.1933 673.72 54.42 672.813 54.42H669.933V59H666.653ZM669.933 51.56H672.613C673 51.56 673.333 51.3933 673.613 51.06C673.893 50.7267 674.033 50.24 674.033 49.6C674.033 48.9467 673.866 48.4667 673.533 48.16C673.213 47.84 672.866 47.68 672.493 47.68H669.933V51.56ZM691.842 59V44.8H703.662V59H700.382V47.68H695.122V59H691.842ZM716.67 59.12C715.617 59.12 714.657 58.92 713.79 58.52C712.937 58.1067 712.197 57.56 711.57 56.88C710.943 56.1867 710.463 55.4133 710.13 54.56C709.797 53.6933 709.63 52.8 709.63 51.88C709.63 50.9467 709.803 50.0533 710.15 49.2C710.51 48.3333 711.003 47.5667 711.63 46.9C712.27 46.22 713.023 45.6867 713.89 45.3C714.757 44.9133 715.703 44.72 716.73 44.72C717.783 44.72 718.737 44.9267 719.59 45.34C720.457 45.74 721.197 46.2867 721.81 46.98C722.437 47.6733 722.917 48.4533 723.25 49.32C723.583 50.1733 723.75 51.0467 723.75 51.94C723.75 52.8733 723.57 53.7733 723.21 54.64C722.863 55.4933 722.37 56.26 721.73 56.94C721.103 57.6067 720.357 58.14 719.49 58.54C718.637 58.9267 717.697 59.12 716.67 59.12ZM712.97 51.92C712.97 52.6533 713.11 53.3467 713.39 54C713.67 54.64 714.09 55.1667 714.65 55.58C715.21 55.9933 715.89 56.2 716.69 56.2C717.517 56.2 718.203 55.9867 718.75 55.56C719.31 55.1333 719.723 54.5933 719.99 53.94C720.27 53.2733 720.41 52.5867 720.41 51.88C720.41 51.1467 720.263 50.46 719.97 49.82C719.69 49.1667 719.27 48.64 718.71 48.24C718.163 47.84 717.49 47.64 716.69 47.64C715.863 47.64 715.17 47.8533 714.61 48.28C714.063 48.6933 713.65 49.2267 713.37 49.88C713.103 50.5333 712.97 51.2133 712.97 51.92ZM728.845 61.72V56.12H729.645C730.338 56.12 730.865 55.56 731.225 54.44C731.585 53.3067 731.805 51.46 731.885 48.9L732.005 44.8H741.845V56.12H743.785V61.72H740.905V59H731.705V61.72H728.845ZM733.485 56.12H738.565V47.68H735.005L734.945 49.36C734.892 51.1867 734.765 52.6467 734.565 53.74C734.365 54.8333 734.005 55.6267 733.485 56.12ZM763.406 59.14C762.18 59.14 761.073 58.8933 760.086 58.4C759.113 57.9067 758.34 57.22 757.766 56.34L760.226 54.82C760.546 55.3133 760.966 55.7067 761.486 56C762.02 56.28 762.633 56.42 763.326 56.42C764.113 56.42 764.686 56.2667 765.046 55.96C765.406 55.64 765.586 55.2267 765.586 54.72C765.586 54.2133 765.413 53.8067 765.066 53.5C764.72 53.1933 764.16 53.04 763.386 53.04H761.566V50.58H763.406C764.02 50.58 764.473 50.4467 764.766 50.18C765.06 49.9133 765.206 49.5533 765.206 49.1C765.206 48.66 765.046 48.3067 764.726 48.04C764.42 47.76 763.913 47.62 763.206 47.62C762.446 47.62 761.806 47.76 761.286 48.04C760.78 48.32 760.393 48.68 760.126 49.12L757.746 47.44C758.346 46.6267 759.086 45.9667 759.966 45.46C760.846 44.9533 761.973 44.7 763.346 44.7C764.92 44.7 766.153 45.0333 767.046 45.7C767.94 46.3667 768.386 47.3333 768.386 48.6C768.386 49.2133 768.233 49.8067 767.926 50.38C767.633 50.94 767.14 51.38 766.446 51.7C767.233 51.9267 767.84 52.34 768.266 52.94C768.693 53.54 768.906 54.24 768.906 55.04C768.906 55.9333 768.666 56.6867 768.186 57.3C767.706 57.9 767.053 58.36 766.226 58.68C765.4 58.9867 764.46 59.14 763.406 59.14ZM778.253 44.8H781.793L786.673 59H783.312L782.213 55.82H777.793L776.713 59H773.353L778.253 44.8ZM781.673 53.56L780.013 48.1L778.312 53.56H781.673ZM792.131 59V44.8H795.391V50.3H796.511L800.471 44.8H804.111L799.031 51.66L804.551 59H800.571L796.411 53.28H795.391V59H792.131ZM813.831 44.8H817.371L822.251 59H818.891L817.791 55.82H813.371L812.291 59H808.931L813.831 44.8ZM817.251 53.56L815.591 48.1L813.891 53.56H817.251ZM832.59 59.14C831.363 59.14 830.257 58.8933 829.27 58.4C828.297 57.9067 827.523 57.22 826.95 56.34L829.41 54.82C829.73 55.3133 830.15 55.7067 830.67 56C831.203 56.28 831.817 56.42 832.51 56.42C833.297 56.42 833.87 56.2667 834.23 55.96C834.59 55.64 834.77 55.2267 834.77 54.72C834.77 54.2133 834.597 53.8067 834.25 53.5C833.903 53.1933 833.343 53.04 832.57 53.04H830.75V50.58H832.59C833.203 50.58 833.657 50.4467 833.95 50.18C834.243 49.9133 834.39 49.5533 834.39 49.1C834.39 48.66 834.23 48.3067 833.91 48.04C833.603 47.76 833.097 47.62 832.39 47.62C831.63 47.62 830.99 47.76 830.47 48.04C829.963 48.32 829.577 48.68 829.31 49.12L826.93 47.44C827.53 46.6267 828.27 45.9667 829.15 45.46C830.03 44.9533 831.157 44.7 832.53 44.7C834.103 44.7 835.337 45.0333 836.23 45.7C837.123 46.3667 837.57 47.3333 837.57 48.6C837.57 49.2133 837.417 49.8067 837.11 50.38C836.817 50.94 836.323 51.38 835.63 51.7C836.417 51.9267 837.023 52.34 837.45 52.94C837.877 53.54 838.09 54.24 838.09 55.04C838.09 55.9333 837.85 56.6867 837.37 57.3C836.89 57.9 836.237 58.36 835.41 58.68C834.583 58.9867 833.643 59.14 832.59 59.14Z" fill="black"/>
<circle cx="1097.5" cy="50" r="20" fill="#DCDCDC" fill-opacity="0.5"/>
<g opacity="0.3" clip-path="url(#clip1_11376_580)">
<path d="M1098 44H1096V46H1098V44Z" fill="black"/>
<path d="M1098 48H1096V56H1098V48Z" fill="black"/>
</g>
<defs>
<clipPath id="clip0_11376_580">
<rect width="47" height="31" fill="white" transform="translate(39 35)"/>
</clipPath>
<clipPath id="clip1_11376_580">
<rect width="2" height="12" fill="white" transform="translate(1096 44)"/>
</clipPath>
</defs>
</svg>
